<?xml version="1.0" encoding="utf-8"?>
<!-- Generator: Adobe Illustrator 28.1.0, SVG Export Plug-In . SVG Version: 6.00 Build 0)  -->
<svg version="1.1" id="Layer_1" xmlns="http://www.w3.org/2000/svg" xmlns:xlink="http://www.w3.org/1999/xlink" x="0px" y="0px"
	 viewBox="0 0 703.8 573.4" style="enable-background:new 0 0 703.8 573.4;" xml:space="preserve">
<style type="text/css">
	.st0{fill:#FFB7B7;}
	.st1{fill:#1B1B1B;}
	.st2{fill:#CBCBCB;}
	.st3{fill:#FFFFFF;}
	.st4{fill:#F8B739;}
</style>
<path class="st0" d="M459.3,239.7c5.9-1.4,11.9,2.2,13.3,8.1c0.2,0.6,0.2,1.3,0.3,1.9l37.8,10.6l-15.4,13.3l-33.5-12.1
	c-6.1,0-11.1-5-11-11.2C450.8,245.3,454.3,240.9,459.3,239.7L459.3,239.7z"/>
<polygon class="st0" points="556.4,561.3 545.3,561.3 540.1,518.8 556.4,518.8 "/>
<path class="st1" d="M559.2,572l-35.5,0v-0.4c0-7.6,6.2-13.8,13.8-13.8h0l21.7,0L559.2,572z"/>
<polygon class="st0" points="620.9,561.3 609.9,561.3 604.6,518.8 620.9,518.8 "/>
<path class="st1" d="M623.7,572l-35.5,0v-0.4c0-7.6,6.2-13.8,13.8-13.8h0l21.7,0L623.7,572z"/>
<polygon class="st1" points="547.4,317.6 531.1,429.9 535.2,548.3 559.5,550.2 567.2,444.1 586.5,384.9 597.9,469.2 598.4,548.3 
	623.5,550.2 632.3,384.1 625.9,311.9 "/>
<circle class="st0" cx="594.3" cy="141.6" r="25.7"/>
<path class="st2" d="M578.5,181.2l-28.3,142.7c0,0,47.7,13.7,68.6,1.1s11.5-51.6,11.5-51.6l-3.8-66.4l-7.1-16.8l-6-13.9L578.5,181.2
	z"/>
<path class="st1" d="M570.2,282.4l9.8-104l-7.8,5.7l-27.4,8.9l-1.9,73.2l-19.1,96.3c0,0,13.7,26.7,30.6-17.5L570.2,282.4z"/>
<polygon class="st1" points="557.9,204 544.8,193 515.2,257.3 482.2,250 480.6,269.5 528.4,288.5 561,243.1 "/>
<polygon class="st1" points="609.1,259.7 612.8,175 626.4,185.5 650.6,192.3 647.1,259.7 652.2,364.3 626.8,372.3 619.7,306.3 "/>
<path class="st0" d="M610.8,327.8c1.1-6,6.8-10,12.8-8.9c0.6,0.1,1.3,0.3,1.9,0.5l24.9-30.3l6,19.5l-24.6,25.8
	c-2.5,5.6-9.1,8.1-14.7,5.6C612.5,337.9,609.8,332.9,610.8,327.8L610.8,327.8z"/>
<polygon class="st1" points="634.4,201.7 650.6,192.3 691.5,272.9 651.7,328.1 629,310 656.5,274 631.4,235.4 "/>
<path class="st1" d="M618.4,121.1l1.2-2.5l-6.3-3.1c0,0-6.9-11.2-19.4-8.1s-18.1,5-18.1,5l-6.2,3.1l3.1,3.1l-5.6,1.9l3.8,1.9
	l-4.4,2.5l2.4,12.9c0,0,3.9-9.8,11.4-6s21.2-1.9,21.2-1.9l11.9,23.1c0,0,2.5-8.1,6.9-5.9C620.3,147,631.5,129.2,618.4,121.1z"/>
<path class="st3" d="M462.6,158.7h-0.2l-94.1,40.2l-128.7,55c-1,0.4-2.2,0.4-3.2,0l-132.8-55.1l-96.4-40l-0.1-0.1H7
	c-3.2,0-5.7,2.6-5.7,5.7v249.1c0,3.2,2.6,5.7,5.7,5.7h455.6c3.2,0,5.7-2.6,5.7-5.7V164.4C468.3,161.3,465.7,158.7,462.6,158.7z"/>
<path class="st1" d="M463,160.3c-0.2,0-0.3-0.1-0.5-0.1L235.9,2.4c-1.4-1-3.3-1-4.7,0L6.2,160.2c-0.4,0.3-0.9,0.2-1.1-0.2
	c-0.3-0.4-0.2-0.9,0.2-1.1L230.3,1c2-1.4,4.6-1.4,6.6,0l226.6,157.8c0.4,0.3,0.5,0.8,0.2,1.1C463.5,160.2,463.2,160.3,463,160.3
	L463,160.3z"/>
<path class="st4" d="M142.8,374.1H36.7c-2.7,0-5-2.2-5-4.9c0-2.7,2.2-5,4.9-5h106.1c2.7,0,5,2.2,5,4.9
	C147.8,371.9,145.5,374.1,142.8,374.1L142.8,374.1L142.8,374.1z"/>
<path class="st4" d="M74.8,352.8H36.7c-2.7,0-5-2.2-5-4.9c0-2.7,2.2-5,4.9-5c0,0,0,0,0,0h38.1c2.7,0,5,2.2,5,5
	C79.7,350.6,77.5,352.8,74.8,352.8L74.8,352.8z"/>
<path class="st4" d="M236.8,254.6c-0.8,0-1.6-0.2-2.4-0.5L102,199.2v-172c0-3.2,2.6-5.7,5.7-5.7h254c3.2,0,5.7,2.6,5.7,5.7v172.1
	l-0.2,0.1l-128.1,54.7C238.4,254.4,237.6,254.6,236.8,254.6z"/>
<path class="st1" d="M461.3,158.7h-0.2l-94.1,40.2l-128.7,55c-1,0.4-2.2,0.4-3.2,0l-132.8-55.1L6,158.8l-0.1-0.1H5.7
	c-3.2,0-5.7,2.6-5.7,5.7v249.1c0,3.2,2.6,5.7,5.7,5.7h455.6c3.2,0,5.7-2.6,5.7-5.7V164.4C467.1,161.3,464.5,158.7,461.3,158.7z
	 M465.4,413.5c0,2.3-1.8,4.1-4.1,4.1H5.7c-2.3,0-4.1-1.8-4.1-4.1V164.4c0-2.2,1.7-4,3.9-4.1l96.8,40.2l132.2,54.8
	c1.4,0.6,3,0.6,4.5,0l128.1-54.7l94.4-40.3c2.2,0.1,3.9,1.9,3.9,4.1L465.4,413.5z"/>
<path class="st3" d="M216.2,85.7H126c-3.6,0-6.5-2.9-6.5-6.6c0-3.6,2.9-6.5,6.5-6.5h90.1c3.6,0,6.5,2.9,6.5,6.6
	C222.7,82.8,219.8,85.7,216.2,85.7z"/>
<path class="st3" d="M169.5,57.9H126c-3.6,0-6.6-2.9-6.5-6.6c0-3.6,2.9-6.5,6.5-6.5h43.4c3.6,0,6.6,2.9,6.5,6.6
	C176,54.9,173.1,57.9,169.5,57.9z"/>
<path class="st3" d="M302.2,151.3H164.5c-3.6,0-6.6-2.9-6.5-6.6c0-3.6,2.9-6.5,6.5-6.5h137.7c3.6,0,6.6,2.9,6.5,6.6
	C308.7,148.4,305.8,151.3,302.2,151.3z"/>
<path class="st3" d="M302.2,181.6H164.5c-3.6,0-6.6-2.9-6.6-6.5c0-3.6,2.9-6.6,6.5-6.6c0,0,0,0,0,0h137.7c3.6,0,6.6,2.9,6.6,6.5
	C308.8,178.7,305.8,181.6,302.2,181.6C302.2,181.6,302.2,181.6,302.2,181.6z"/>
</svg>
