<?xml version="1.0" encoding="utf-8"?>
<!-- Generator: Adobe Illustrator 28.1.0, SVG Export Plug-In . SVG Version: 6.00 Build 0)  -->
<svg version="1.1" id="Layer_1" xmlns="http://www.w3.org/2000/svg" xmlns:xlink="http://www.w3.org/1999/xlink" x="0px" y="0px"
	 viewBox="0 0 621.6 555.9" style="enable-background:new 0 0 621.6 555.9;" xml:space="preserve">
<style type="text/css">
	.st0{fill:#F0F0F0;}
	.st1{fill:#1B1B1B;}
	.st2{fill:#FFFFFF;}
	.st3{fill:#F8B739;}
	.st4{fill:#F1A1A4;}
	.st5{fill:#2F2E43;}
</style>
<path id="b10fb2cf-c586-4c5f-9fbf-e678f5ffa3db-811" class="st0" d="M558.1,507.4c-13.6,14.5-29.1,27.1-46.2,37.3
	c-0.4,0.2-0.8,0.5-1.2,0.7L483,521c0.3-0.3,0.6-0.6,1-0.9c20.6-19.6,122.8-156.3,129.6-189.6C613.2,333.3,619.8,442,558.1,507.4z"/>
<path id="a32c10c7-75df-4179-a648-6a8d2a687209-812" class="st0" d="M517.2,549.4c-0.5,0.1-1.1,0.2-1.6,0.3l-20.7-18.4
	c0.4-0.1,0.9-0.3,1.4-0.5c8.9-3.2,35.4-12.7,61.8-23.5c28.3-11.6,56.5-24.8,62.6-33.2C619.4,476.2,579.3,535.6,517.2,549.4z"/>
<path class="st1" d="M557.7,145.6h-3V64.7c0-25.9-21-46.8-46.8-46.8l0,0H336.5c-25.9,0-46.8,21-46.8,46.8v443.8
	c0,25.9,21,46.8,46.8,46.8l0,0h171.4c25.9,0,46.8-21,46.8-46.8V203.2h3V145.6z"/>
<path class="st2" d="M544.8,65v443.1c0,19.3-15.7,35-35,35l0,0H337.6c-19.3,0-35-15.6-35-35l0,0V65c0-19.3,15.6-35,35-35l0,0h20.9
	c-3.5,8.5,0.6,18.2,9.1,21.7c2,0.8,4.1,1.2,6.2,1.2H472c9.2,0,16.6-7.4,16.6-16.6c0-2.2-0.4-4.3-1.2-6.3h22.4
	C529.1,30,544.8,45.7,544.8,65L544.8,65z"/>
<path class="st0" d="M491.2,295.3H339.8c-5.5,0-10-4.5-10-10v-5c0-5.5,4.5-10,10-10h151.4c5.5,0,10,4.5,10,10v5
	C501.2,290.8,496.7,295.3,491.2,295.3z"/>
<path class="st0" d="M491.2,338.2H339.8c-5.5,0-10-4.5-10-10v-5c0-5.5,4.5-10,10-10h151.4c5.5,0,10,4.5,10,10v5
	C501.2,333.7,496.7,338.2,491.2,338.2z"/>
<path class="st1" d="M498.8,285.7H347.4c-5.8,0-10.5-4.7-10.5-10.5v-5c0-5.8,4.7-10.5,10.5-10.5h151.4c5.8,0,10.5,4.7,10.5,10.5v5
	C509.3,281,504.6,285.7,498.8,285.7z M347.4,261.7c-4.7,0-8.5,3.8-8.5,8.5v5c0,4.7,3.8,8.5,8.5,8.5h151.4c4.7,0,8.5-3.8,8.5-8.5v-5
	c0-4.7-3.8-8.5-8.5-8.5H347.4z"/>
<path class="st1" d="M498.8,328.6H347.4c-5.8,0-10.5-4.7-10.5-10.5v-5c0-5.8,4.7-10.5,10.5-10.5h151.4c5.8,0,10.5,4.7,10.5,10.5v5
	C509.3,323.9,504.6,328.6,498.8,328.6z M347.4,304.6c-4.7,0-8.5,3.8-8.5,8.5v5c0,4.7,3.8,8.5,8.5,8.5h151.4c4.7,0,8.5-3.8,8.5-8.5
	v-5c0-4.7-3.8-8.5-8.5-8.5H347.4z"/>
<path class="st0" d="M544.8,65v96.4c-55.3,14.5-111.9-18.5-126.5-73.8c-2.3-8.6-3.4-17.4-3.4-26.3c0-2.8,0.1-5.6,0.3-8.4H472
	c9.2,0,16.6-7.4,16.6-16.6c0-2.2-0.4-4.3-1.2-6.3h22.4C529.1,30,544.8,45.7,544.8,65L544.8,65z"/>
<path class="st3" d="M389.6,537.1c0,2-0.1,4-0.2,6h-51.8c-19.3,0-35-15.6-35-35l0,0v-47.4c42.2-5.5,80.9,24.3,86.4,66.5
	C389.4,530.5,389.6,533.8,389.6,537.1L389.6,537.1z"/>
<rect x="195.7" y="268.7" transform="matrix(0.6075 -0.7943 0.7943 0.6075 -145.1029 285.9898)" class="st0" width="42.2" height="42.2"/>
<path class="st0" d="M56.9,56.9c10.7,0,20.9,5.1,27.3,13.7L103.8,45L45,0L0,58.8l25.3,19.4C30.5,65.3,43,56.9,56.9,56.9z"/>
<path class="st3" d="M448.3,389.9h-71.9c-5.5,0-10-4.5-10-10v-5c0-5.5,4.5-10,10-10h71.9c5.5,0,10,4.5,10,10v5
	C458.3,385.5,453.8,389.9,448.3,389.9z"/>
<path class="st1" d="M455.9,380.3H384c-5.8,0-10.5-4.7-10.5-10.5v-5c0-5.8,4.7-10.5,10.5-10.5h71.9c5.8,0,10.5,4.7,10.5,10.5v5
	C466.4,375.6,461.7,380.3,455.9,380.3z M384,356.4c-4.7,0-8.5,3.8-8.5,8.5v5c0,4.7,3.8,8.5,8.5,8.5h71.9c4.7,0,8.5-3.8,8.5-8.5v-5
	c0-4.7-3.8-8.5-8.5-8.5H384z"/>
<rect x="21.6" y="484.1" transform="matrix(0.5386 -0.8425 0.8425 0.5386 -400.1969 261.0927)" class="st4" width="33.5" height="23.6"/>
<polygon class="st4" points="103,67.8 125.9,68 125.6,104.4 100.5,95.8 "/>
<circle class="st4" cx="123.1" cy="53" r="25.2"/>
<path class="st1" d="M116.3,50.7c-2.7-2.7-7.7-1.6-10,1.4c-2.3,3-2.7,7.2-2.5,10.9c0.2,3.8,0.9,7.5,0.2,11.3c-7,1.4-14-3-17.4-9.3
	c-3.4-6.3-3.6-13.6-3.2-20.6c0.4-6.8,1.8-14.1,6.6-19c3.9-3.8,9.3-5.4,14.7-6.4c8.6-1.6,17.4-2.3,26.1-1.8c3.6,0.2,7.5,0.7,10.2,3
	s5.2,14.9,2.5,17.4c-2.5,2.3-8.1-6.6-11.3-5.4c-3.9,1.6-5.7,5.9-7.3,9.8c-1.8,3.9-4.7,8.2-8.8,8.2"/>
<path class="st5" d="M88.7,69.6c1.1,2.7-0.4,6.1-3,7.2c-1.8,0.7-3.8,0.5-5.7,0c-3.4-0.9-6.3-2.7-8.4-5.4c-2.1-2.7-3-6.3-2.1-9.5
	c0.9-3.2,3.8-5.9,7.2-6.3c3-0.4,6.1,1.3,8.6,3"/>
<path id="uuid-31bdf68e-d938-48b7-86ad-7ba8e8b265d3-91-677" class="st4" d="M178.7,296.4L178.7,296.4L178.7,296.4L178.7,296.4
	c-0.5-3.4-2-6.4-3.9-9.3l-8.6-131.6l-26.1,4.7L159.4,290c-0.9,3.4-1.1,6.8-0.4,10c1.4,8.2,7.2,14.3,12.7,13.2
	C177.1,312.2,180.4,304.7,178.7,296.4L178.7,296.4z"/>
<path class="st3" d="M126.1,87.7L126.1,87.7l-2.9,76.8c15.4,3.4,45.8-10.6,47.6-11.1c1.1-0.4-4.3-25.4-8.4-44.4
	c-2.7-12.4-6.1-19.2-18.6-21.1L126.1,87.7L126.1,87.7z"/>
<rect x="99.2" y="505.1" transform="matrix(1.117030e-02 -0.9999 0.9999 1.117030e-02 -402.1966 627.0266)" class="st4" width="33.5" height="23.6"/>
<path class="st1" d="M150.3,554.4L150.3,554.4L150.3,554.4L150.3,554.4c-10.2,0-25.4-1.3-25.4-1.4c-4.1,0.4-24.3,1.8-25.2-2.9
	c-0.9-4.3,0.5-8.8,0.7-9.3c2.1-19.3,2.9-19.5,3.2-19.7c0.7-0.2,2.7,0.7,5.9,2.9l0.2,0.2v0.2c0,0.4,1.4,7.5,8.2,6.4
	c4.8-0.7,6.3-1.6,6.8-2.1c-0.4-0.2-0.9-0.5-1.3-1.1c-0.5-0.9-0.5-1.8-0.2-3c0.9-3.2,3.6-7.9,3.8-8.1l0.4-0.5l26.7,18.4l16.5,4.8
	c1.3,0.4,2.1,1.3,2.7,2.5l0,0c0.7,1.6,0.4,3.6-1.1,4.8c-3,2.7-9.1,7.2-15.4,7.7C154.9,554.4,152.8,554.4,150.3,554.4L150.3,554.4z"
	/>
<path class="st1" d="M63.1,548.9L63.1,548.9L63.1,548.9L63.1,548.9c-3.2,0-7-0.5-9.8-2c-7.7-3.9-26.3-17.7-26.5-17.9
	c-3.6-2-21.5-11.5-19.9-15.9c1.4-4.1,5-7.2,5.5-7.5c12.2-15.2,12.9-15,13.2-14.9c0.5,0.2,1.8,2,3.4,5.5l0.2,0.2l-0.2,0.2
	c-0.2,0.4-2.7,7.2,3.6,9.8c4.3,1.8,6.1,1.8,6.8,1.6c-0.4-0.4-0.5-0.9-0.5-1.6c0-0.9,0.5-1.8,1.4-2.7c2.5-2.1,7.3-4.7,7.5-4.8
	l0.5-0.4l12.9,29.7l11.5,12.9c0.9,1.1,1.3,2.3,1.1,3.6l0,0c-0.4,1.8-1.8,3.2-3.6,3.6C68.5,548.5,66,548.9,63.1,548.9L63.1,548.9z"/>
<path class="st1" d="M90,219.5L90,219.5L90,219.5L90,219.5c0,0-7.7-0.2-19.9,23.8c-12.2,23.8,2,120.5,2,120.5L28,474l29.7,21.3
	l56.2-118l-15,131.2l33.8,0.4l28.8-227.2l-5.4-61.6L90,219.5L90,219.5z"/>
<polygon class="st3" points="86.4,87.2 132.2,87.7 162.1,223.9 57,222.9 "/>
<path id="uuid-0d1d7be6-7e67-43a2-9b15-a4bbed67d7bc-92-678" class="st4" d="M46.8,295L46.8,295L46.8,295c0.7-3.4,2.1-6.4,4.3-9.1
	l11.5-131.4l26,5.2L66.3,289.1c0.9,3.4,0.9,6.8,0.2,10c-1.8,8.2-7.7,14-13.1,12.9C48.1,310.8,45,303.2,46.8,295L46.8,295z"/>
<path class="st3" d="M104.1,87.5l1.3,76.8c-15.4,3.2-45.5-11.5-47.3-12c-1.1-0.4,4.8-25.4,9.3-44.2c2.9-12.4,6.4-19,19-20.8
	L104.1,87.5L104.1,87.5z"/>
</svg>
