<?xml version="1.0" encoding="utf-8"?>
<!-- Generator: Adobe Illustrator 28.1.0, SVG Export Plug-In . SVG Version: 6.00 Build 0)  -->
<svg version="1.1" id="Layer_1" xmlns="http://www.w3.org/2000/svg" xmlns:xlink="http://www.w3.org/1999/xlink" x="0px" y="0px"
	 viewBox="0 0 440 440" style="enable-background:new 0 0 440 440;" xml:space="preserve">
<style type="text/css">
	.st0{fill:#F8B739;}
	.st1{fill-rule:evenodd;clip-rule:evenodd;fill:#FFFFFF;}
</style>
<g>
	<circle class="st0" cx="220" cy="220" r="199.8"/>
</g>
<g id="Page-1">
	<g id="Dribbble-Light-Preview" transform="translate(-140.000000, -2159.000000)">
		<g id="icons" transform="translate(56.000000, 160.000000)">
			<path id="profile_x5F_round-_x5B__x23_1342_x5D_" class="st1" d="M369.3,2298.6H238.7c-7,0-12.2-6.9-9.6-13.3
				c12.3-29.5,41.2-46.4,74.9-46.4c33.7,0,62.6,16.9,74.9,46.4C381.5,2291.7,376.3,2298.6,369.3,2298.6 M263.4,2179.2
				c0-22,18.2-39.8,40.6-39.8c22.4,0,40.6,17.9,40.6,39.8c0,22-18.2,39.8-40.6,39.8C281.6,2219,263.4,2201.1,263.4,2179.2
				 M403.1,2295c-7.4-33.4-30.5-58.1-60.9-69.3c16.1-12.7,25.5-33.3,22.1-55.8c-4-26.1-26.2-47-52.9-50c-36.9-4.2-68.3,24-68.3,59.3
				c0,18.8,8.9,35.6,22.8,46.5c-30.4,11.2-53.5,35.9-60.9,69.3c-2.7,12.2,7.3,23.5,20,23.5h158.1
				C395.8,2318.5,405.8,2307.1,403.1,2295"/>
		</g>
	</g>
</g>
</svg>
