<?xml version="1.0" encoding="utf-8"?>
<!-- Generator: Adobe Illustrator 28.1.0, SVG Export Plug-In . SVG Version: 6.00 Build 0)  -->
<svg version="1.1" id="Layer_1" xmlns="http://www.w3.org/2000/svg" xmlns:xlink="http://www.w3.org/1999/xlink" x="0px" y="0px"
	 viewBox="0 0 550.6 412.4" style="enable-background:new 0 0 550.6 412.4;" xml:space="preserve">
<style type="text/css">
	.st0{fill:#2E2E43;}
	.st1{fill:#FFFFFF;stroke:#1B1B1B;stroke-width:2;stroke-linecap:round;stroke-linejoin:round;}
	.st2{fill:#F8B739;}
	.st3{fill:none;stroke:#BAB7C9;stroke-width:2;stroke-linecap:round;stroke-linejoin:round;}
	.st4{fill:none;stroke:#1B1B1B;stroke-width:2;stroke-linecap:round;stroke-linejoin:round;}
	.st5{fill:#F1A1A4;}
	.st6{fill:#1B1B1B;}
	.st7{fill:#2F2E43;}
</style>
<path class="st0" d="M550.6,411.3c0,0.7-0.5,1.2-1.2,1.2H1.2c-0.7,0-1.2-0.5-1.2-1.2s0.5-1.2,1.2-1.2h548.2
	C550.1,410.1,550.6,410.6,550.6,411.3z"/>
<path class="st1" d="M436.7,84.8H114.1c-4.5,0-8.1-3.6-8.1-8.1V51.8c0-4.5,3.6-8.1,8.1-8.1h322.6c4.5,0,8.1,3.6,8.1,8.1v24.9
	C444.7,81.2,441.1,84.8,436.7,84.8z"/>
<path class="st1" d="M436.7,238H114.1c-4.5,0-8.1-3.6-8.1-8.1v-24.9c0-4.5,3.6-8.1,8.1-8.1h322.6c4.5,0,8.1,3.6,8.1,8.1v24.9
	C444.7,234.4,441.1,238,436.7,238z"/>
<path class="st2" d="M207.7,348h-94.6c-4.5,0-8.1-3.6-8.1-8.1v-24.9c0-4.5,3.6-8.1,8.1-8.1h94.6c4.5,0,8.1,3.6,8.1,8.1v24.9
	C215.7,344.4,212.1,348,207.7,348z"/>
<line class="st3" x1="106.7" y1="1" x2="177.4" y2="1"/>
<line class="st4" x1="106.7" y1="154.2" x2="238.1" y2="154.2"/>
<rect x="390.5" y="369.3" transform="matrix(0.8425 -0.5386 0.5386 0.8425 -141.4433 273.5202)" class="st5" width="13.2" height="18.7"/>
<polygon class="st5" points="362.3,155.1 348.3,159.9 348.1,139.6 360.9,139.5 "/>
<circle class="st5" cx="349.7" cy="131.2" r="14.1"/>
<path class="st6" d="M353.6,129.7c-2.3,0-3.9-2.4-4.9-4.6c-0.9-2.2-1.9-4.6-4.1-5.5c-1.8-0.7-4.9,4.3-6.3,3
	c-1.5-1.4-0.1-8.4,1.4-9.7s3.7-1.6,5.7-1.7c4.9-0.3,9.8,0.1,14.6,1c3,0.6,6,1.5,8.2,3.6c2.7,2.7,3.5,6.8,3.7,10.6
	c0.2,3.9,0.1,8-1.8,11.5c-1.9,3.5-5.8,6-9.7,5.2c-0.4-2.1,0-4.2,0.1-6.3c0.1-2.1-0.1-4.4-1.4-6.1s-4.1-2.3-5.6-0.8"/>
<path class="st7" d="M370.9,134.4c1.4-1,3.1-1.9,4.8-1.7c1.9,0.2,3.5,1.7,4,3.5s0,3.8-1.2,5.3s-2.8,2.5-4.7,3
	c-1.1,0.3-2.2,0.4-3.2,0c-1.5-0.6-2.3-2.5-1.7-4"/>
<path id="uuid-31bdf68e-d938-48b7-86ad-7ba8e8b265d3-91-677" class="st5" d="M318.6,267.2c-0.9,4.6,0.9,8.8,3.9,9.4
	c3.1,0.6,6.3-2.8,7.1-7.4c0.4-1.8,0.3-3.7-0.2-5.6l10.8-72.5l-14.6-2.6l-4.8,73.5C319.7,263.6,318.9,265.3,318.6,267.2L318.6,267.2
	L318.6,267.2L318.6,267.2L318.6,267.2z"/>
<path class="st2" d="M348,150.6l-9.9,0.1c-7,1.1-8.9,4.9-10.4,11.8c-2.3,10.6-5.3,24.6-4.7,24.8c1,0.3,18,8.1,26.6,6.2L348,150.6
	L348,150.6L348,150.6z"/>
<rect x="347.1" y="381" transform="matrix(0.9999 -1.116988e-02 1.116988e-02 0.9999 -4.3386 3.9754)" class="st5" width="13.2" height="18.7"/>
<path class="st6" d="M334.5,411.3c-1.4,0-2.6,0-3.6-0.1c-3.5-0.3-6.9-2.8-8.6-4.3c-0.8-0.7-1-1.8-0.6-2.7l0,0
	c0.3-0.7,0.8-1.2,1.5-1.4l9.2-2.7l14.9-10.3l0.2,0.3c0.1,0.1,1.6,2.7,2.1,4.5c0.2,0.7,0.2,1.2-0.1,1.7c-0.2,0.3-0.5,0.5-0.7,0.6
	c0.3,0.3,1.1,0.8,3.8,1.2c3.8,0.6,4.6-3.4,4.6-3.6l0-0.1l0.1-0.1c1.8-1.2,2.9-1.7,3.3-1.6c0.2,0.1,0.6,0.2,1.8,11
	c0.1,0.3,0.9,2.8,0.4,5.2c-0.5,2.6-11.8,1.8-14.1,1.6C348.7,410.6,340.2,411.3,334.5,411.3L334.5,411.3L334.5,411.3L334.5,411.3
	L334.5,411.3z"/>
<path class="st6" d="M383.2,408.2c-1.6,0-3-0.2-4-0.3c-1-0.2-1.8-1-2-2l0,0c-0.1-0.7,0.1-1.4,0.6-2l6.4-7.2l7.2-16.6l0.3,0.2
	c0.1,0.1,2.8,1.5,4.2,2.7c0.5,0.5,0.8,1,0.8,1.5c0,0.4-0.1,0.7-0.3,0.9c0.4,0.1,1.4,0.1,3.8-0.9c3.5-1.5,2.1-5.3,2-5.5l-0.1-0.1
	l0.1-0.1c0.9-2,1.6-3,1.9-3.1c0.2-0.1,0.6-0.2,7.4,8.3c0.3,0.2,2.3,1.9,3.1,4.2c0.9,2.5-9.1,7.8-11.1,8.9c-0.1,0.1-10.5,7.8-14.8,10
	C387.1,407.9,385,408.2,383.2,408.2L383.2,408.2L383.2,408.2L383.2,408.2L383.2,408.2z"/>
<path class="st6" d="M368.2,224.2l-37,0.4l-3,34.4l16.1,126.9l18.9-0.2l-8.4-73.3l31.4,65.9l16.6-11.9l-24.6-61.6
	c0,0,7.9-54,1.1-67.3C372.5,224.1,368.2,224.2,368.2,224.2L368.2,224.2L368.2,224.2L368.2,224.2L368.2,224.2z"/>
<polygon class="st2" points="386.6,226.1 327.9,226.7 344.6,150.6 370.2,150.3 "/>
<path id="uuid-0d1d7be6-7e67-43a2-9b15-a4bbed67d7bc-92-678" class="st5" d="M392.3,266.4c1,4.6-0.7,8.8-3.7,9.5
	c-3,0.6-6.3-2.6-7.3-7.2c-0.4-1.8-0.4-3.7,0.1-5.6L369,190.8l14.5-2.9l6.4,73.4C391.1,262.8,391.9,264.5,392.3,266.4L392.3,266.4
	L392.3,266.4L392.3,266.4z"/>
<path class="st2" d="M360.3,150.5l9.9-0.1c7,1,9,4.7,10.6,11.6c2.5,10.5,5.8,24.5,5.2,24.7c-1,0.3-17.8,8.5-26.4,6.7L360.3,150.5
	L360.3,150.5z"/>
</svg>
