<?xml version="1.0" encoding="utf-8"?>
<!-- Generator: Adobe Illustrator 28.1.0, SVG Export Plug-In . SVG Version: 6.00 Build 0)  -->
<svg version="1.1" id="Layer_1" xmlns="http://www.w3.org/2000/svg" xmlns:xlink="http://www.w3.org/1999/xlink" x="0px" y="0px"
	 viewBox="0 0 604.9 747.1" style="enable-background:new 0 0 604.9 747.1;" xml:space="preserve">
<style type="text/css">
	.st0{fill:#F8B739;}
	.st1{fill:#1B1B1B;}
	.st2{fill:#FFFFFF;}
	.st3{fill:#3F3D56;}
</style>
<path id="fa3b9e12-7275-481e-bee9-64fd9595a50d-384" class="st0" d="M71.6,629.3l-6.6-25.9c-11.6-4.9-23.5-9.2-35.6-12.8l-0.8,12
	l-3.4-13.2c-15-4.3-25.2-6.2-25.2-6.2s13.8,52.5,42.8,92.6l33.7,5.9l-26.2,3.8c3.6,4.4,7.6,8.5,11.7,12.4
	c42.1,39.1,89,57,104.8,40.1s-5.6-62.4-47.7-101.5c-13.1-12.1-29.5-21.8-45.9-29.5L71.6,629.3z"/>
<path id="bde08021-c30f-4979-a9d8-cb90b72b5ca2-385" class="st0" d="M134,601.2l7.8-25.5c-7.4-10.2-15.4-20-23.9-29.4l-6.9,9.9
	l4-13.1c-10.6-11.4-18.4-18.3-18.4-18.3s-15.3,52.1-11.3,101.4l25.8,22.5l-24.4-10.3c0.9,5.6,2.1,11.2,3.6,16.7
	c15.8,55.2,46.7,94.8,69,88.5s27.4-56.3,11.6-111.6c-4.9-17.1-13.9-33.9-24-49L134,601.2z"/>
<path id="b3ac2088-de9b-4f7f-bc99-0ed9705c1a9d-386" class="st1" d="M519.8,177h-4.1V64.9c0-35.8-29-64.9-64.9-64.9H213.3
	c-35.8,0-64.9,29-64.9,64.9v615c0,35.8,29,64.9,64.9,64.9h237.5c35.8,0,64.9-29,64.9-64.9V256.8h4.1L519.8,177z"/>
<path id="b2715b96-3117-487c-acc0-20904544b5b7-387" class="st2" d="M453.4,16.9h-31c4.8,11.8-0.8,25.2-12.6,30
	c-2.8,1.1-5.7,1.7-8.7,1.7H265c-12.7,0-23-10.3-23-23c0-3,0.6-5.9,1.7-8.7h-29c-26.8,0-48.5,21.7-48.5,48.5l0,0v614.1
	c0,26.8,21.7,48.5,48.5,48.5h238.7c26.8,0,48.5-21.7,48.5-48.5l0,0V65.3C501.8,38.6,480.2,16.9,453.4,16.9z"/>
<path id="b06d66ec-6c84-45dd-8c27-1263a6253192-388" class="st1" d="M303.7,261.5c0-8.7,4.7-16.8,12.2-21.2
	c-11.7-6.8-26.6-2.7-33.4,8.9c-6.8,11.7-2.7,26.6,8.9,33.4c7.6,4.4,16.9,4.4,24.5,0C308.3,278.3,303.7,270.2,303.7,261.5z"/>
<path id="e73810fe-4cf4-40cc-8c7c-ca544ce30bd4-389" class="st1" d="M334.4,261.5c0-8.7,4.7-16.8,12.2-21.2
	c-11.7-6.8-26.6-2.7-33.4,8.9c-6.8,11.7-2.7,26.6,8.9,33.4c7.6,4.4,16.9,4.4,24.5,0C339.1,278.3,334.4,270.2,334.4,261.5z"/>
<circle id="a4813fcf-056e-4514-bb8b-e6506f49341f" class="st0" cx="364.4" cy="261.5" r="24.5"/>
<path id="bbe451c3-febc-41ba-8083-4c8307a2e73e-390" class="st1" d="M405.3,337.9H262.8c-2.8,0-5.1-2.3-5.1-5.1V190.3
	c0-2.8,2.3-5.1,5.1-5.1h142.5c2.8,0,5.1,2.3,5.1,5.1v142.5C410.4,335.6,408.1,337.9,405.3,337.9z M262.8,187.2
	c-1.7,0-3.1,1.4-3.1,3.1v142.5c0,1.7,1.4,3.1,3.1,3.1h142.5c1.7,0,3.1-1.4,3.1-3.1V190.3c0-1.7-1.4-3.1-3.1-3.1H262.8z"/>
<rect id="bb28937d-932f-4fdf-befe-f406e51091fe" x="218.6" y="447.1" class="st1" width="218.6" height="2"/>
<circle id="fcef55fc-4968-45b2-93bb-1a1080c85fc7" class="st0" cx="225.5" cy="427.4" r="6.9"/>
<rect id="ff33d889-4c74-4b91-85ef-b4882cc8fe76" x="218.6" y="516.1" class="st1" width="218.6" height="2"/>
<circle id="e8fa0310-b872-4adf-aedd-0c6eda09f3b8" class="st0" cx="225.5" cy="496.4" r="6.9"/>
<path class="st0" d="M433.1,594.7H364c-2.5,0-4.5-2-4.5-4.5V566c0-2.5,2-4.5,4.5-4.5h69.1c2.5,0,4.5,2,4.5,4.5v24.2
	C437.6,592.7,435.6,594.7,433.1,594.7z"/>
<circle id="e12ee00d-aa4a-4413-a013-11d20b7f97f7" class="st0" cx="248" cy="427.4" r="6.9"/>
<circle id="f58f497e-6949-45c8-be5f-eee2aa0f6586" class="st0" cx="270.5" cy="427.4" r="6.9"/>
<circle id="b4d4939a-c6e6-4f4d-ba6c-e8b05485017d" class="st0" cx="248" cy="496.4" r="6.9"/>
<circle id="aff120b1-519b-4e96-ac87-836aa55663de" class="st0" cx="270.5" cy="496.4" r="6.9"/>
<path id="f1094013-1297-477a-ac57-08eac07c4bd5-391_00000158019584921503437540000006553972616452947128_" class="st3" d="
	M24.1,747.1c-1.5,0-2.8-0.5-2.8-1.2s1.2-1.2,2.8-1.2V747.1z"/>
</svg>
